<?xml version="1.0" encoding="UTF-8" standalone="no"?>
<!-- Created with Inkscape (http://www.inkscape.org/) -->

<svg id="SvgjsSvg1001" width="288" height="288" xmlns="http://www.w3.org/2000/svg" version="1.1" xmlns:xlink="http://www.w3.org/1999/xlink" xmlns:svgjs="http://svgjs.com/svgjs"><defs id="SvgjsDefs1002"></defs><g id="SvgjsG1008"><svg xmlns="http://www.w3.org/2000/svg" version="1.0" viewBox="0 0 1563 333" width="288" height="288"><g transform="matrix(.1 0 0 -.1 0 333)" fill="#7495bb" class="color000 svgShape"><path d="M12940 1580 l0 -1120 1120 0 1120 0 0 1120 0 1120 -1120 0 -1120 0 0-1120z m1263 866 c199 -59 359 -176 471 -345 145 -218 177 -516 82 -759 l-24
-61 124 -281 c124 -280 136 -320 95 -320 -9 0 -138 54 -285 120 l-268 119 -57
-28 c-108 -55 -185 -73 -331 -78 -115 -4 -148 -2 -225 16 -520 124 -794 697
-561 1175 119 245 346 418 608 466 93 16 272 5 371 -24z" fill="#7495bb" class="color000 svgShape"></path><path d="M13857 2400c-151-26-291-96-403-202-174-166-253-362-241-598 10-199 79-353 222-495 101-100 169-145 285-186 198-70 393-60 591 33l89 41 188-83c103-46 211-94 239-106l53-24-26 58c-14 31-64 144-111 250l-86 193 26 67c47 120 60 195 55 327-4 100-10 135-35 207-123 356-486 578-846 518zm-190-637c20-9 44-30 54-47 24-39 25-109 2-147-18-30-84-69-118-69-34 0-100 39-118 69-9 16-17 49-17 73 0 104 101 167 197 121zm388-3c83-51 84-180 3-230-52-32-119-27-162 10-70 61-70 148-1 209 44 38 109 43 160 11zm366 5c60-31 88-123 56-185-45-88-185-93-237-7-72 118 58 255 181 192zM595 2096c-22-7-54-20-71-29-40-21-110-97-128-141-51-122-15-266 84-336 18-13 92-44 165-70 155-54 182-70 201-115 19-45 17-71-6-123-24-54-79-81-161-82-66 0-116 16-184 59-70 44-88 41-130-21l-34-53 32-29c18-15 59-41 91-57 169-81 374-61 483 48 77 77 113 213 83 317-26 94-97 147-279 210-168 59-198 86-189 171 10 83 70 120 182 113 46-3 80-13 128-37 36-19 72-32 80-29 19 8 71 105 63 118-12 20-83 59-144 80-70 23-202 26-266 6zM3291 2091c-140-52-209-161-199-311 10-138 77-200 288-267 93-30 122-44 153-74 31-31 37-43 37-80 0-24-8-59-18-78-28-56-61-73-146-79-68-4-80-2-138 26-35 17-75 38-89 48-38 25-69 12-101-41-16-25-28-50-28-55 0-15 117-87 172-107 39-13 82-18 163-18 100 0 116 3 173 29 117 54 184 161 185 295 1 156-62 218-308 302-157 53-201 108-161 204 20 48 77 75 160 75 54 0 75-6 134-36 39-20 78-34 86-31 8 3 27 30 42 59l27 52-34 28c-57 48-132 71-244 75-81 3-110 0-154-16zM5062 2094c-93-25-164-66-233-134-103-102-149-221-149-385 0-160 44-279 140-379 96-100 207-146 357-146 137 0 236 31 325 102 54 44 55 55 6 105-23 24-46 43-51 43-5 0-26-14-47-30-54-43-113-61-200-63-105-2-170 22-236 87-67 68-95 140-102 262-5 110 13 185 64 261 64 94 149 135 282 136 78 0 88-2 165-41 45-23 85-42 89-42 4 0 26 25 49 55l41 55-23 20c-45 38-125 79-184 95-73 19-222 19-293-1zM1190 1580l0-520 330 0 330 0 0 75 0 75-235 0-235 0 0 150 0 150 185 0 185 0 0 70 0 70-185 0-186 0 3 153 3 152 233 3 232 2 0 70 0 70-330 0-330 0 0-520zM2020 1580l0-520 85 0 86 0-3 365c-2 201-1 365 2 365 3-1 120-148 260-328 340-436 308-402 386-402l64 0 0 520 0 520-80 0-80 0-2-365-3-365-285 363-285 362-73 3-72 3 0-521zM3910 1580l0-520 325 0 325 0 0 75 0 75-235 0-235 0 0 150 0 150 185 0 185 0 0 70 0 70-182 2-183 3 0 150 0 150 233 3 232 2 0 70 0 70-325 0-325 0 0-520zM5822 1587c-111-282-202-516-202-520 0-4 38-7 83-7 67 0 87 3 99 18 9 9 34 67 56 127l40 110 222 0 222 0 42-111c22-61 47-119 55-128 10-12 32-16 97-16 46 0 84 4 84 8 0 5-77 204-171 443-94 239-184 469-200 512l-30 77-98 0-98 0-201-513zm389 90c43-120 79-220 79-222 0-3-76-5-170-5-93 0-170 2-170 4 0 2 29 82 64 178 35 95 71 198 81 228 22 70 29 80 33 55 2-11 40-118 83-238zM6750 1580l0-520 95 0 95 0 0 205 0 205 63 0c78 0 70 8 217-215 62-93 119-176 128-182 10-9 51-13 114-13l99 0-127 188c-70 103-142 203-160 222l-34 35 48 22c70 33 118 77 147 138 74 150 21 323-118 388-83 39-144 47-362 47l-205 0 0-520zm458 350c115-65 105-242-18-302-35-18-68-23-147-26l-103-4 0 182 0 183 113-5c95-3 119-8 155-28zM7700 1580l0-520 325 0 325 0 0 75 0 75-230 0-230 0 0 150 0 150 185 0 185 0 0 70 0 70-185 0-185 0 0 155 0 155 230 0 230 0 0 70 0 70-325 0-325 0 0-520zM8810 1580l0-520 86 0 85 0-3 380c-2 209-1 380 2 380 3 0 78-136 167-303 89-166 168-308 175-315 6-6 33-12 59-12 38 0 51 5 66 23 10 13 88 155 173 315 85 160 157 292 160 292 3 0 4-171 2-380l-3-380 86 0 85 0 0 520 0 520-94 0c-63 0-97-4-104-12-17-22-341-633-353-667-14-39-22-39-37 2-11 31-319 609-348 655-13 20-22 22-109 22l-95 0 0-520zM10170 1580l0-520 325 0 325 0 0 75 0 75-235 0-236 0 3 148 3 147 183 3 182 2 0 70 0 70-182 2-183 3 0 150 0 150 233 3 232 2 0 70 0 70-325 0-325 0 0-520zM11000 1580l0-520 325 0 325 0 0 75 0 75-230 0-230 0 0 150 0 150 185 0 185 0 0 70 0 70-185 0-185 0 0 155 0 155 230 0 230 0 0 70 0 70-325 0-325 0 0-520zM11740 2025l0-75 160 0 160 0 0-445 0-445 95 0 95 0 0 445 0 445 160 0 160 0 0 75 0 75-415 0-415 0 0-75z" fill="#7495bb" class="color000 svgShape"></path></g></svg></g></svg>