<?xml version="1.0" encoding="UTF-8" standalone="no"?>
<!-- Created with Inkscape (http://www.inkscape.org/) -->

<svg xmlns="http://www.w3.org/2000/svg" xmlns:xlink="http://www.w3.org/1999/xlink" xmlns:svgjs="http://svgjs.com/svgjs" width="287" height="48" version="1.1"><rect id="backgroundrect" width="100%" height="100%" x="0" y="0" fill="none" stroke="none"/><defs id="SvgjsDefs1002"/><g class="currentLayer" style=""><title>Layer 1</title><g id="SvgjsG1008" class=""><svg xmlns="http://www.w3.org/2000/svg" version="1.0" viewBox="0 0 1563 333" width="288" height="288" id="svg_1" x="1.6787381172180176" y="-120.48454093933105"><g fill="#7495bb" class="color000 svgShape" id="svg_2"><path d="M1294,175 l0,112 l112,0 l112,0 l0,-112 l0,-112 l-112,0 l-112,0 l0,112 zm126.30000000000001,-86.60000000000001 c19.900000000000002,5.9 35.9,17.6 47.1,34.5 c14.5,21.8 17.7,51.6 8.200000000000001,75.9 l-2.4000000000000004,6.1000000000000005 l12.4,28.1 c12.4,28 13.600000000000001,32 9.5,32 c-0.9,0 -13.8,-5.4 -28.5,-12 l-26.8,-11.9 l-5.7,2.8000000000000003 c-10.8,5.5 -18.5,7.300000000000001 -33.1,7.800000000000001 c-11.5,0.4 -14.8,0.2 -22.5,-1.6 c-52,-12.4 -79.4,-69.7 -56.1,-117.5 c11.9,-24.5 34.6,-41.800000000000004 60.800000000000004,-46.6 c9.3,-1.6 27.200000000000003,-0.5 37.1,2.4000000000000004 z" fill="#7495bb" class="color000 svgShape" stroke-width="0" id="svg_3"/><path d="M1385.7,93 c-15.100000000000001,2.6 -29.1,9.600000000000001 -40.300000000000004,20.200000000000003 c-17.400000000000002,16.6 -25.3,36.2 -24.1,59.800000000000004 c1,19.900000000000002 7.9,35.300000000000004 22.200000000000003,49.5 c10.100000000000001,10 16.900000000000002,14.5 28.5,18.6 c19.8,7 39.300000000000004,6 59.1,-3.3000000000000003 l8.9,-4.1000000000000005 l18.8,8.3 c10.3,4.6000000000000005 21.1,9.4 23.900000000000002,10.600000000000001 l5.300000000000001,2.4000000000000004 l-2.6,-5.800000000000001 c-1.4000000000000001,-3.1 -6.4,-14.4 -11.100000000000001,-25 l-8.6,-19.3 l2.6,-6.7 c4.7,-12 6,-19.5 5.5,-32.7 c-0.4,-10 -1,-13.5 -3.5,-20.700000000000003 c-12.3,-35.6 -48.6,-57.800000000000004 -84.60000000000001,-51.800000000000004 zm-19,63.7 c2,0.9 4.4,3 5.4,4.7 c2.4000000000000004,3.9000000000000004 2.5,10.9 0.2,14.700000000000001 c-1.8,3 -8.4,6.9 -11.8,6.9 c-3.4000000000000004,0 -10,-3.9000000000000004 -11.8,-6.9 c-0.9,-1.6 -1.7000000000000002,-4.9 -1.7000000000000002,-7.300000000000001 c0,-10.4 10.100000000000001,-16.7 19.700000000000003,-12.100000000000001 zm38.800000000000004,0.30000000000000004 c8.3,5.1000000000000005 8.4,18 0.30000000000000004,23 c-5.2,3.2 -11.9,2.7 -16.2,-1 c-7,-6.1000000000000005 -7,-14.8 -0.1,-20.900000000000002 c4.4,-3.8000000000000003 10.9,-4.3 16,-1.1 zm36.6,-0.5 c6,3.1 8.8,12.3 5.6000000000000005,18.5 c-4.5,8.8 -18.5,9.3 -23.700000000000003,0.7000000000000001 c-7.2,-11.8 5.800000000000001,-25.5 18.1,-19.200000000000003 zM59.5,123.39999999999998 c-2.2,0.7000000000000001 -5.4,2 -7.1000000000000005,2.9000000000000004 c-4,2.1 -11,9.700000000000001 -12.8,14.100000000000001 c-5.1000000000000005,12.200000000000001 -1.5,26.6 8.4,33.6 c1.8,1.3 9.200000000000001,4.4 16.5,7 c15.5,5.4 18.2,7 20.1,11.5 c1.9000000000000001,4.5 1.7000000000000002,7.1000000000000005 -0.6000000000000001,12.3 c-2.4000000000000004,5.4 -7.9,8.1 -16.1,8.200000000000001 c-6.6000000000000005,0 -11.600000000000001,-1.6 -18.400000000000002,-5.9 c-7,-4.4 -8.8,-4.1000000000000005 -13,2.1 l-3.4000000000000004,5.300000000000001 l3.2,2.9000000000000004 c1.8,1.5 5.9,4.1000000000000005 9.1,5.7 c16.900000000000002,8.1 37.4,6.1000000000000005 48.300000000000004,-4.800000000000001 c7.7,-7.7 11.3,-21.3 8.3,-31.700000000000003 c-2.6,-9.4 -9.700000000000001,-14.700000000000001 -27.900000000000002,-21 c-16.8,-5.9 -19.8,-8.6 -18.900000000000002,-17.1 c1,-8.3 7,-12 18.2,-11.3 c4.6000000000000005,0.30000000000000004 8,1.3 12.8,3.7 c3.6,1.9000000000000001 7.2,3.2 8,2.9000000000000004 c1.9000000000000001,-0.8 7.1000000000000005,-10.5 6.300000000000001,-11.8 c-1.2000000000000002,-2 -8.3,-5.9 -14.4,-8 c-7,-2.3000000000000003 -20.200000000000003,-2.6 -26.6,-0.6000000000000001 zM329.1,123.89999999999998 c-14,5.2 -20.900000000000002,16.1 -19.900000000000002,31.1 c1,13.8 7.7,20 28.8,26.700000000000003 c9.3,3 12.200000000000001,4.4 15.3,7.4 c3.1,3.1 3.7,4.3 3.7,8 c0,2.4000000000000004 -0.8,5.9 -1.8,7.800000000000001 c-2.8000000000000003,5.6000000000000005 -6.1000000000000005,7.300000000000001 -14.600000000000001,7.9 c-6.800000000000001,0.4 -8,0.2 -13.8,-2.6 c-3.5,-1.7000000000000002 -7.5,-3.8000000000000003 -8.9,-4.800000000000001 c-3.8000000000000003,-2.5 -6.9,-1.2000000000000002 -10.100000000000001,4.1000000000000005 c-1.6,2.5 -2.8000000000000003,5 -2.8000000000000003,5.5 c0,1.5 11.700000000000001,8.700000000000001 17.2,10.700000000000001 c3.9000000000000004,1.3 8.200000000000001,1.8 16.3,1.8 c10,0 11.600000000000001,-0.30000000000000004 17.3,-2.9000000000000004 c11.700000000000001,-5.4 18.400000000000002,-16.1 18.5,-29.5 c0.1,-15.600000000000001 -6.2,-21.8 -30.8,-30.200000000000003 c-15.700000000000001,-5.300000000000001 -20.1,-10.8 -16.1,-20.400000000000002 c2,-4.800000000000001 7.7,-7.5 16,-7.5 c5.4,0 7.5,0.6000000000000001 13.4,3.6 c3.9000000000000004,2 7.800000000000001,3.4000000000000004 8.6,3.1 c0.8,-0.30000000000000004 2.7,-3 4.2,-5.9 l2.7,-5.2 l-3.4000000000000004,-2.8000000000000003 c-5.7,-4.800000000000001 -13.200000000000001,-7.1000000000000005 -24.400000000000002,-7.5 c-8.1,-0.30000000000000004 -11,0 -15.4,1.6 zM506.20000000000005,123.6 c-9.3,2.5 -16.400000000000002,6.6000000000000005 -23.3,13.4 c-10.3,10.200000000000001 -14.9,22.1 -14.9,38.5 c0,16 4.4,27.900000000000002 14,37.9 c9.600000000000001,10 20.700000000000003,14.600000000000001 35.7,14.600000000000001 c13.700000000000001,0 23.6,-3.1 32.5,-10.200000000000001 c5.4,-4.4 5.5,-5.5 0.6000000000000001,-10.5 c-2.3000000000000003,-2.4000000000000004 -4.6000000000000005,-4.3 -5.1000000000000005,-4.3 c-0.5,0 -2.6,1.4000000000000001 -4.7,3 c-5.4,4.3 -11.3,6.1000000000000005 -20,6.300000000000001 c-10.5,0.2 -17,-2.2 -23.6,-8.700000000000001 c-6.7,-6.800000000000001 -9.5,-14 -10.200000000000001,-26.200000000000003 c-0.5,-11 1.3,-18.5 6.4,-26.1 c6.4,-9.4 14.9,-13.5 28.200000000000003,-13.600000000000001 c7.800000000000001,0 8.8,0.2 16.5,4.1000000000000005 c4.5,2.3000000000000003 8.5,4.2 8.9,4.2 c0.4,0 2.6,-2.5 4.9,-5.5 l4.1000000000000005,-5.5 l-2.3000000000000003,-2 c-4.5,-3.8000000000000003 -12.5,-7.9 -18.400000000000002,-9.5 c-7.300000000000001,-1.9000000000000001 -22.200000000000003,-1.9000000000000001 -29.3,0.1 zM119,175 l0,52 l33,0 l33,0 l0,-7.5 l0,-7.5 l-23.5,0 l-23.5,0 l0,-15 l0,-15 l18.5,0 l18.5,0 l0,-7 l0,-7 l-18.5,0 l-18.6,0 l0.30000000000000004,-15.3 l0.30000000000000004,-15.200000000000001 l23.3,-0.30000000000000004 l23.200000000000003,-0.2 l0,-7 l0,-7 l-33,0 l-33,0 l0,52 zM202,175 l0,52 l8.5,0 l8.6,0 l-0.30000000000000004,-36.5 c-0.2,-20.1 -0.1,-36.5 0.2,-36.5 c0.30000000000000004,0.1 12,14.8 26,32.800000000000004 c34,43.6 30.8,40.2 38.6,40.2 l6.4,0 l0,-52 l0,-52 l-8,0 l-8,0 l-0.2,36.5 l-0.30000000000000004,36.5 l-28.5,-36.300000000000004 l-28.5,-36.2 l-7.300000000000001,-0.30000000000000004 l-7.2,-0.30000000000000004 l0,52.1 zM391,175 l0,52 l32.5,0 l32.5,0 l0,-7.5 l0,-7.5 l-23.5,0 l-23.5,0 l0,-15 l0,-15 l18.5,0 l18.5,0 l0,-7 l0,-7 l-18.2,-0.2 l-18.3,-0.30000000000000004 l0,-15 l0,-15 l23.3,-0.30000000000000004 l23.200000000000003,-0.2 l0,-7 l0,-7 l-32.5,0 l-32.5,0 l0,52 zM582.2,174.29999999999998 c-11.100000000000001,28.200000000000003 -20.200000000000003,51.6 -20.200000000000003,52 c0,0.4 3.8000000000000003,0.7000000000000001 8.3,0.7000000000000001 c6.7,0 8.700000000000001,-0.30000000000000004 9.9,-1.8 c0.9,-0.9 3.4000000000000004,-6.7 5.6000000000000005,-12.700000000000001 l4,-11 l22.200000000000003,0 l22.200000000000003,0 l4.2,11.100000000000001 c2.2,6.1000000000000005 4.7,11.9 5.5,12.8 c1,1.2000000000000002 3.2,1.6 9.700000000000001,1.6 c4.6000000000000005,0 8.4,-0.4 8.4,-0.8 c0,-0.5 -7.7,-20.400000000000002 -17.1,-44.300000000000004 c-9.4,-23.900000000000002 -18.400000000000002,-46.900000000000006 -20,-51.2 l-3,-7.7 l-9.8,0 l-9.8,0 l-20.1,51.300000000000004 zm38.900000000000006,-9 c4.3,12 7.9,22 7.9,22.200000000000003 c0,0.30000000000000004 -7.6000000000000005,0.5 -17,0.5 c-9.3,0 -17,-0.2 -17,-0.4 c0,-0.2 2.9000000000000004,-8.200000000000001 6.4,-17.8 c3.5,-9.5 7.1000000000000005,-19.8 8.1,-22.8 c2.2,-7 2.9000000000000004,-8 3.3000000000000003,-5.5 c0.2,1.1 4,11.8 8.3,23.8 zM675,175 l0,52 l9.5,0 l9.5,0 l0,-20.5 l0,-20.5 l6.300000000000001,0 c7.800000000000001,0 7,-0.8 21.700000000000003,21.5 c6.2,9.3 11.9,17.6 12.8,18.2 c1,0.9 5.1000000000000005,1.3 11.4,1.3 l9.9,0 l-12.700000000000001,-18.8 c-7,-10.3 -14.200000000000001,-20.3 -16,-22.200000000000003 l-3.4000000000000004,-3.5 l4.800000000000001,-2.2 c7,-3.3000000000000003 11.8,-7.7 14.700000000000001,-13.8 c7.4,-15 2.1,-32.300000000000004 -11.8,-38.800000000000004 c-8.3,-3.9000000000000004 -14.4,-4.7 -36.2,-4.7 l-20.5,0 l0,52 zm45.800000000000004,-35 c11.5,6.5 10.5,24.200000000000003 -1.8,30.200000000000003 c-3.5,1.8 -6.800000000000001,2.3000000000000003 -14.700000000000001,2.6 l-10.3,0.4 l0,-18.2 l0,-18.3 l11.3,0.5 c9.5,0.30000000000000004 11.9,0.8 15.5,2.8000000000000003 zM770,175 l0,52 l32.5,0 l32.5,0 l0,-7.5 l0,-7.5 l-23,0 l-23,0 l0,-15 l0,-15 l18.5,0 l18.5,0 l0,-7 l0,-7 l-18.5,0 l-18.5,0 l0,-15.5 l0,-15.5 l23,0 l23,0 l0,-7 l0,-7 l-32.5,0 l-32.5,0 l0,52 zM881,175 l0,52 l8.6,0 l8.5,0 l-0.30000000000000004,-38 c-0.2,-20.900000000000002 -0.1,-38 0.2,-38 c0.30000000000000004,0 7.800000000000001,13.600000000000001 16.7,30.3 c8.9,16.6 16.8,30.8 17.5,31.5 c0.6000000000000001,0.6000000000000001 3.3000000000000003,1.2000000000000002 5.9,1.2000000000000002 c3.8000000000000003,0 5.1000000000000005,-0.5 6.6000000000000005,-2.3000000000000003 c1,-1.3 8.8,-15.5 17.3,-31.5 c8.5,-16 15.700000000000001,-29.200000000000003 16,-29.200000000000003 c0.30000000000000004,0 0.4,17.1 0.2,38 l-0.30000000000000004,38 l8.6,0 l8.5,0 l0,-52 l0,-52 l-9.4,0 c-6.300000000000001,0 -9.700000000000001,0.4 -10.4,1.2000000000000002 c-1.7000000000000002,2.2 -34.1,63.300000000000004 -35.300000000000004,66.7 c-1.4000000000000001,3.9000000000000004 -2.2,3.9000000000000004 -3.7,-0.2 c-1.1,-3.1 -31.900000000000002,-60.900000000000006 -34.800000000000004,-65.5 c-1.3,-2 -2.2,-2.2 -10.9,-2.2 l-9.5,0 l0,52 zM1017,175 l0,52 l32.5,0 l32.5,0 l0,-7.5 l0,-7.5 l-23.5,0 l-23.6,0 l0.30000000000000004,-14.8 l0.30000000000000004,-14.700000000000001 l18.3,-0.30000000000000004 l18.2,-0.2 l0,-7 l0,-7 l-18.2,-0.2 l-18.3,-0.30000000000000004 l0,-15 l0,-15 l23.3,-0.30000000000000004 l23.200000000000003,-0.2 l0,-7 l0,-7 l-32.5,0 l-32.5,0 l0,52 zM1100,175 l0,52 l32.5,0 l32.5,0 l0,-7.5 l0,-7.5 l-23,0 l-23,0 l0,-15 l0,-15 l18.5,0 l18.5,0 l0,-7 l0,-7 l-18.5,0 l-18.5,0 l0,-15.5 l0,-15.5 l23,0 l23,0 l0,-7 l0,-7 l-32.5,0 l-32.5,0 l0,52 zM1174,130.5 l0,7.5 l16,0 l16,0 l0,44.5 l0,44.5 l9.5,0 l9.5,0 l0,-44.5 l0,-44.5 l16,0 l16,0 l0,-7.5 l0,-7.5 l-41.5,0 l-41.5,0 l0,7.5 z" fill="#7495bb" class="color000 svgShape" stroke-width="0" id="svg_4"/></g></svg></g></g></svg>