<?xml version="1.0" encoding="iso-8859-1"?>
<!-- Generator: Adobe Illustrator 19.0.0, SVG Export Plug-In . SVG Version: 6.00 Build 0)  -->
<svg version="1.1" id="Layer_1" xmlns="http://www.w3.org/2000/svg" xmlns:xlink="http://www.w3.org/1999/xlink" x="0px" y="0px"
	 viewBox="0 0 511.996 511.996" style="enable-background:new 0 0 511.996 511.996;" xml:space="preserve">
<g>
	<g>
		<path style="fill:#41965B;" d="M76.8,430.931H8.533c-4.719,0-8.533-3.814-8.533-8.533v-332.8c0-4.719,3.814-8.533,8.533-8.533
			H76.8c4.71,0,8.533,3.814,8.533,8.533s-3.823,8.533-8.533,8.533H17.067v315.733H76.8c4.71,0,8.533,3.814,8.533,8.533
			S81.51,430.931,76.8,430.931"/>
		<path style="fill:#41965B;" d="M503.462,430.931h-68.267c-4.71,0-8.533-3.814-8.533-8.533s3.823-8.533,8.533-8.533h59.733V98.131
			h-59.733c-4.71,0-8.533-3.814-8.533-8.533s3.823-8.533,8.533-8.533h68.267c4.71,0,8.533,3.814,8.533,8.533v332.8
			C511.996,427.117,508.173,430.931,503.462,430.931"/>
	</g>
	<g>
		<path style="fill:#DD342E;" d="M204.796,302.931c-4.71,0-8.533-3.814-8.533-8.533v-68.267c0-4.719,3.823-8.533,8.533-8.533
			s8.533,3.814,8.533,8.533v68.267C213.329,299.117,209.506,302.931,204.796,302.931"/>
		<path style="fill:#DD342E;" d="M213.329,251.731h17.067c4.702,0,8.533-3.823,8.533-8.533s-3.831-8.533-8.533-8.533h-17.067
			V251.731z M230.396,268.798h-25.6c-4.71,0-8.533-3.814-8.533-8.533v-34.133c0-4.719,3.823-8.533,8.533-8.533h25.6
			c14.114,0,25.6,11.486,25.6,25.6C255.996,257.312,244.51,268.798,230.396,268.798L230.396,268.798z"/>
		<path style="fill:#DD342E;" d="M247.458,302.931c-1.869,0-3.755-0.606-5.325-1.869l-42.667-34.133
			c-3.686-2.944-4.275-8.311-1.331-11.998c2.935-3.678,8.311-4.275,11.989-1.331l42.667,34.133
			c3.686,2.944,4.275,8.311,1.331,11.998C252.442,301.83,249.958,302.931,247.458,302.931"/>
		<path style="fill:#DD342E;" d="M315.729,302.931h-34.133c-4.71,0-8.533-3.814-8.533-8.533v-68.267
			c0-4.719,3.823-8.533,8.533-8.533h34.133c4.71,0,8.533,3.814,8.533,8.533s-3.823,8.533-8.533,8.533h-25.6v51.2h25.6
			c4.71,0,8.533,3.814,8.533,8.533S320.439,302.931,315.729,302.931"/>
		<path style="fill:#DD342E;" d="M315.729,268.798h-34.133c-4.71,0-8.533-3.814-8.533-8.533s3.823-8.533,8.533-8.533h34.133
			c4.71,0,8.533,3.814,8.533,8.533S320.439,268.798,315.729,268.798"/>
		<path style="fill:#DD342E;" d="M388.262,311.465c-25.882,0-46.933-21.06-46.933-46.933c0-25.873,21.052-46.933,46.933-46.933
			c10.726,0,21.214,3.721,29.542,10.47c3.661,2.961,4.224,8.329,1.254,11.998c-2.978,3.652-8.337,4.215-12.006,1.246
			c-5.367-4.343-11.861-6.647-18.79-6.647c-16.469,0-29.867,13.397-29.867,29.867s13.397,29.867,29.867,29.867
			c6.921,0,13.406-2.295,18.765-6.622c3.661-2.961,9.045-2.398,12.006,1.263c2.961,3.669,2.389,9.045-1.271,11.998
			C409.451,307.761,398.972,311.465,388.262,311.465"/>
		<path style="fill:#DD342E;" d="M153.596,260.265c0-14.14-11.46-25.6-25.6-25.6s-25.6,11.46-25.6,25.6
			c0,14.14,11.46,25.6,25.6,25.6S153.596,274.404,153.596,260.265"/>
	</g>
</g>
<g>
</g>
<g>
</g>
<g>
</g>
<g>
</g>
<g>
</g>
<g>
</g>
<g>
</g>
<g>
</g>
<g>
</g>
<g>
</g>
<g>
</g>
<g>
</g>
<g>
</g>
<g>
</g>
<g>
</g>
</svg>
